<?xml version="1.0" encoding="utf-8"?>
<!-- Generator: Adobe Illustrator 23.0.2, SVG Export Plug-In . SVG Version: 6.00 Build 0)  -->
<svg version="1.1" id="Layer_1" xmlns="http://www.w3.org/2000/svg" xmlns:xlink="http://www.w3.org/1999/xlink" x="0px" y="0px"
	 viewBox="0 0 342.8 107" style="enable-background:new 0 0 342.8 107;" xml:space="preserve">
<style type="text/css">
	.st0{fill:#FFFFFF;}
</style>
<g>
	<g>
		<g>
			<path class="st0" d="M68.7,56.7c12.9,0,25.6,0.8,38.1,2.4V47.9c-12.5,1.6-25.2,2.4-38.1,2.4S43,49.5,30.6,47.9V59
				C43,57.5,55.8,56.7,68.7,56.7z"/>
			<g>
				<path class="st0" d="M106.8,30.6C95.6,37,82.6,40.8,68.7,40.8S41.8,37,30.6,30.6v11.8c12.2,3.1,25,4.8,38.1,4.8
					s25.9-1.7,38.1-4.8V30.6z"/>
			</g>
			<g>
				<path class="st0" d="M106.8,76.4V64.6c-12.2-3.1-25-4.8-38.1-4.8s-25.9,1.7-38.1,4.8v11.8c11.2-6.5,24.2-10.2,38.1-10.2
					S95.6,69.9,106.8,76.4z"/>
			</g>
		</g>
		<g>
			<path class="st0" d="M126,53.4c0-9.4,7.1-15.8,16.2-15.8c9.1,0,16.2,6.4,16.2,15.8c0,9.3-7.1,15.8-16.2,15.8
				C133,69.2,126,62.8,126,53.4z M150.9,53.4c0-5.1-3.4-9.3-8.7-9.3c-5.4,0-8.8,4.1-8.8,9.3c0,5.2,3.4,9.3,8.8,9.3
				C147.6,62.7,150.9,58.6,150.9,53.4z"/>
			<path class="st0" d="M182.9,56V38.2h7.3v18.3c0,7.2-4.7,12.9-13.6,12.9c-9.1,0-13.6-5.6-13.6-12.9V38.2h7.3V56
				c0,4,2.2,6.7,6.3,6.7C180.7,62.7,182.9,60,182.9,56z"/>
			<path class="st0" d="M202.5,46.3c0,1.8,1.5,2.6,4,2.9l3.1,0.4c6.9,0.9,11.4,3.1,11.4,9.7c0,5.8-4.4,9.9-12.5,9.9
				c-9.7,0-13.4-5.4-14.3-9.4h7.8c0.6,1.4,2.5,3.4,6.5,3.4c3.3,0,4.9-1.3,4.9-3.3c0-2.2-1.7-3-4.3-3.4l-3.1-0.4
				c-6.8-0.9-11-3.5-11-9.6c0-5.7,4.9-9,11.9-9c9.2,0,12.4,4.8,13.3,8.4h-7.5c-0.6-1.1-2.3-2.5-5.8-2.5
				C204.1,43.5,202.5,44.6,202.5,46.3z"/>
			<path class="st0" d="M222.7,38.2h28.2v6.4h-10.5v24.2h-7.3V44.5h-10.5V38.2z"/>
			<path class="st0" d="M255.1,38.2h23.8v6h-16.4v5.7h11.1v6.2h-11.1v6.3h17.5v6.3h-24.9V38.2z"/>
			<path class="st0" d="M284.1,38.2h15.7c6.8,0,10.8,3.3,10.8,9.5c0,4.2-1.9,7.1-5.4,8.4l7.2,12.6h-7.8L297.8,57h-6.4v11.7h-7.3
				V38.2z M291.4,44.4v6.5h7.7c2.6,0,4-1.1,4-3.2c0-2.2-1.4-3.2-4-3.2H291.4z"/>
		</g>
	</g>
	<g>
		<g>
			<polygon class="st0" points="311.8,38.2 314.8,38.2 314.8,38.9 313.7,38.9 313.7,41.4 312.8,41.4 312.8,38.9 311.8,38.9 			"/>
			<polygon class="st0" points="317.4,40.2 318.2,38.2 319.4,38.2 319.4,41.4 318.6,41.4 318.6,38.9 317.7,41.5 317.1,41.5 
				316.2,38.9 316.2,41.4 315.4,41.4 315.4,38.2 316.6,38.2 			"/>
		</g>
	</g>
</g>
</svg>
