<?xml version="1.0" encoding="utf-8"?>
<!-- Generator: Adobe Illustrator 23.0.2, SVG Export Plug-In . SVG Version: 6.00 Build 0)  -->
<svg version="1.1" id="Layer_1" xmlns="http://www.w3.org/2000/svg" xmlns:xlink="http://www.w3.org/1999/xlink" x="0px" y="0px"
	 viewBox="0 0 370 243.6" style="enable-background:new 0 0 370 243.6;" xml:space="preserve">
<style type="text/css">
	.st0{fill:#FFFFFF;}
</style>
<g>
	<g>
		<g>
			<path class="st0" d="M185,93.4c23.6,0,46.8,1.5,69.7,4.3V77.5c-22.8,2.8-46.1,4.3-69.7,4.3s-46.8-1.5-69.7-4.3v20.3
				C138.2,94.9,161.4,93.4,185,93.4z"/>
			<g>
				<path class="st0" d="M254.6,45.7c-20.5,11.9-44.3,18.7-69.7,18.7s-49.2-6.8-69.7-18.7v21.5c22.3,5.7,45.6,8.8,69.7,8.8
					s47.4-3,69.7-8.8V45.7z"/>
			</g>
			<g>
				<path class="st0" d="M254.6,129.5V108c-22.3-5.7-45.6-8.8-69.7-8.8s-47.4,3-69.7,8.8v21.5c20.5-11.9,44.3-18.7,69.7-18.7
					S234.1,117.6,254.6,129.5z"/>
			</g>
		</g>
		<g>
			<path class="st0" d="M45.7,174.1c0-14,10.6-23.6,24.3-23.6c13.6,0,24.2,9.6,24.2,23.6c0,13.9-10.6,23.6-24.2,23.6
				C56.2,197.7,45.7,188,45.7,174.1z M83,174.1c0-7.7-5-13.8-13.1-13.8c-8,0-13.1,6.1-13.1,13.8c0,7.8,5.1,13.8,13.1,13.8
				C78,187.9,83,181.8,83,174.1z"/>
			<path class="st0" d="M130.9,177.9v-26.7h10.9v27.4c0,10.7-7,19.2-20.3,19.2c-13.6,0-20.3-8.4-20.3-19.2v-27.4h10.9v26.7
				c0,5.9,3.3,10,9.4,10C127.5,187.9,130.9,183.8,130.9,177.9z"/>
			<path class="st0" d="M160.1,163.4c0,2.6,2.3,3.9,6,4.4l4.6,0.6c10.3,1.3,17.1,4.7,17.1,14.5c0,8.7-6.6,14.8-18.7,14.8
				c-14.5,0-20-8-21.4-14.1h11.6c0.8,2.1,3.7,5.1,9.7,5.1c4.9,0,7.4-1.9,7.4-5c0-3.3-2.6-4.4-6.4-5l-4.6-0.6
				c-10.1-1.4-16.4-5.3-16.4-14.3c0-8.6,7.3-13.5,17.8-13.5c13.7,0,18.6,7.2,19.9,12.6h-11.2c-1-1.6-3.4-3.8-8.7-3.8
				C162.5,159.2,160.1,160.9,160.1,163.4z"/>
			<path class="st0" d="M190.4,151.2h42.2v9.5h-15.6v36.2h-10.9v-36.2h-15.6V151.2z"/>
			<path class="st0" d="M238.7,151.2h35.5v9h-24.6v8.5h16.7v9.2h-16.7v9.5h26.2v9.5h-37.2V151.2z"/>
			<path class="st0" d="M282.1,151.2h23.4c10.1,0,16.1,4.9,16.1,14.2c0,6.2-2.9,10.6-8.1,12.6l10.7,18.9h-11.7l-10-17.5H293v17.5
				h-10.9V151.2z M293,160.6v9.7h11.5c3.9,0,6-1.7,6-4.8c0-3.3-2.1-4.8-6-4.8H293z"/>
		</g>
	</g>
	<g>
		<polygon class="st0" points="324.3,151.2 328.9,151.2 328.9,152.4 327.3,152.4 327.3,156.1 325.9,156.1 325.9,152.4 324.3,152.4 
					"/>
		<polygon class="st0" points="332.7,154.3 333.9,151.2 335.7,151.2 335.7,156.1 334.5,156.1 334.5,152.4 333.1,156.1 332.2,156.1 
			330.9,152.4 330.9,156.1 329.7,156.1 329.7,151.2 331.6,151.2 		"/>
	</g>
</g>
</svg>
