<?xml version="1.0" encoding="UTF-8"?>
<!-- Created with Inkscape (http://www.inkscape.org/) -->
<svg width="175.74mm" height="111.19mm" version="1.1" viewBox="0 0 175.74 111.19" xmlns="http://www.w3.org/2000/svg">
 <defs>
  <marker id="Arrow1Lend" overflow="visible" orient="auto">
   <path transform="matrix(-.8 0 0 -.8 -10 0)" d="m0 0 5-5-17.5 5 17.5 5z" fill="context-stroke" fill-rule="evenodd" stroke="context-stroke" stroke-width="1pt"/>
  </marker>
  <marker id="Arrow1Lend-5" overflow="visible" orient="auto">
   <path transform="matrix(-.8 0 0 -.8 -10 0)" d="m0 0 5-5-17.5 5 17.5 5z" fill="context-stroke" fill-rule="evenodd" stroke="context-stroke" stroke-width="1pt"/>
  </marker>
  <marker id="Arrow1Lend-6" overflow="visible" orient="auto">
   <path transform="matrix(-.8 0 0 -.8 -10 0)" d="m0 0 5-5-17.5 5 17.5 5z" fill="context-stroke" fill-rule="evenodd" stroke="context-stroke" stroke-width="1pt"/>
  </marker>
  <marker id="Arrow1Lend-5-1" overflow="visible" orient="auto">
   <path transform="matrix(-.8 0 0 -.8 -10 0)" d="m0 0 5-5-17.5 5 17.5 5z" fill="context-stroke" fill-rule="evenodd" stroke="context-stroke" stroke-width="1pt"/>
  </marker>
  <marker id="Arrow1Lend-5-1-0" overflow="visible" orient="auto">
   <path transform="matrix(-.8 0 0 -.8 -10 0)" d="m0 0 5-5-17.5 5 17.5 5z" fill="context-stroke" fill-rule="evenodd" stroke="context-stroke" stroke-width="1pt"/>
  </marker>
  <marker id="Arrow1Lend-60" overflow="visible" orient="auto">
   <path transform="matrix(-.8 0 0 -.8 -10 0)" d="m0 0 5-5-17.5 5 17.5 5z" fill="context-stroke" fill-rule="evenodd" stroke="context-stroke" stroke-width="1pt"/>
  </marker>
  <marker id="Arrow1Lend-5-2" overflow="visible" orient="auto">
   <path transform="matrix(-.8 0 0 -.8 -10 0)" d="m0 0 5-5-17.5 5 17.5 5z" fill="context-stroke" fill-rule="evenodd" stroke="context-stroke" stroke-width="1pt"/>
  </marker>
  <marker id="Arrow1Lend-5-1-1" overflow="visible" orient="auto">
   <path transform="matrix(-.8 0 0 -.8 -10 0)" d="m0 0 5-5-17.5 5 17.5 5z" fill="context-stroke" fill-rule="evenodd" stroke="context-stroke" stroke-width="1pt"/>
  </marker>
  <marker id="Arrow1Lend-5-1-0-7" overflow="visible" orient="auto">
   <path transform="matrix(-.8 0 0 -.8 -10 0)" d="m0 0 5-5-17.5 5 17.5 5z" fill="context-stroke" fill-rule="evenodd" stroke="context-stroke" stroke-width="1pt"/>
  </marker>
  <marker id="Arrow1Lend-6-2" overflow="visible" orient="auto">
   <path transform="matrix(-.8 0 0 -.8 -10 0)" d="m0 0 5-5-17.5 5 17.5 5z" fill="context-stroke" fill-rule="evenodd" stroke="context-stroke" stroke-width="1pt"/>
  </marker>
  <marker id="Arrow1Lend-3" overflow="visible" orient="auto">
   <path transform="matrix(-.8 0 0 -.8 -10 0)" d="m0 0 5-5-17.5 5 17.5 5z" fill="context-stroke" fill-rule="evenodd" stroke="context-stroke" stroke-width="1pt"/>
  </marker>
  <marker id="Arrow1Lend-5-29" overflow="visible" orient="auto">
   <path transform="matrix(-.8 0 0 -.8 -10 0)" d="m0 0 5-5-17.5 5 17.5 5z" fill="context-stroke" fill-rule="evenodd" stroke="context-stroke" stroke-width="1pt"/>
  </marker>
  <marker id="Arrow1Lend-5-1-19" overflow="visible" orient="auto">
   <path transform="matrix(-.8 0 0 -.8 -10 0)" d="m0 0 5-5-17.5 5 17.5 5z" fill="context-stroke" fill-rule="evenodd" stroke="context-stroke" stroke-width="1pt"/>
  </marker>
  <marker id="Arrow1Lend-5-1-0-78" overflow="visible" orient="auto">
   <path transform="matrix(-.8 0 0 -.8 -10 0)" d="m0 0 5-5-17.5 5 17.5 5z" fill="context-stroke" fill-rule="evenodd" stroke="context-stroke" stroke-width="1pt"/>
  </marker>
  <marker id="Arrow1Lend-6-5" overflow="visible" orient="auto">
   <path transform="matrix(-.8 0 0 -.8 -10 0)" d="m0 0 5-5-17.5 5 17.5 5z" fill="context-stroke" fill-rule="evenodd" stroke="context-stroke" stroke-width="1pt"/>
  </marker>
  <marker id="Arrow1Lend-60-5" overflow="visible" orient="auto">
   <path transform="matrix(-.8 0 0 -.8 -10 0)" d="m0 0 5-5-17.5 5 17.5 5z" fill="context-stroke" fill-rule="evenodd" stroke="context-stroke" stroke-width="1pt"/>
  </marker>
 </defs>
 <g transform="translate(-15.614 -44.471)">
  <g transform="matrix(1.372 0 0 1.372 56.037 41.453)">
   <path d="m18.364 67.11 6.3195 0.02333" fill="none" marker-end="url(#Arrow1Lend-60-5)" stroke="#000" stroke-dasharray="0.179859, 0.179859" stroke-width=".17986"/>
   <text x="26.783001" y="67.980598" fill="#000000" font-family="sans-serif" font-size="2.1167px" stroke-width=".26458" style="font-variant-caps:normal;font-variant-east-asian:normal;font-variant-ligatures:normal;font-variant-numeric:normal;line-height:1.25" xml:space="preserve"><tspan x="26.783001" y="67.980598" font-family="sans-serif" font-size="2.1167px" stroke-width=".26458" style="font-variant-caps:normal;font-variant-east-asian:normal;font-variant-ligatures:normal;font-variant-numeric:normal">Beam</tspan></text>
  </g>
  <path d="m81.365 139.72 8.8868-0.0329" fill="#fff" stroke="#00f" stroke-width=".25293"/>
  <text x="92.784195" y="140.5744" fill="#000000" font-family="sans-serif" font-size="2.9042px" stroke-width=".36302" style="font-variant-caps:normal;font-variant-east-asian:normal;font-variant-ligatures:normal;font-variant-numeric:normal;line-height:1.25" xml:space="preserve"><tspan x="92.784195" y="140.5744" font-family="sans-serif" font-size="2.9042px" stroke-width=".36302" style="font-variant-caps:normal;font-variant-east-asian:normal;font-variant-ligatures:normal;font-variant-numeric:normal">Mesh boundary</tspan></text>
  <g transform="matrix(1.372 0 0 1.372 56.037 42.179)">
   <g>
    <circle cx="21.698" cy="75.668" r="2.1589" fill="#fffffe" fill-rule="evenodd" stroke="#000" stroke-width=".13938"/>
    <text x="26.851213" y="76.087692" fill="#000000" font-family="sans-serif" font-size="2.1167px" stroke-width=".26458" style="font-variant-caps:normal;font-variant-east-asian:normal;font-variant-ligatures:normal;font-variant-numeric:normal;line-height:1.25" xml:space="preserve"><tspan x="26.851213" y="76.087692" font-family="sans-serif" font-size="2.1167px" stroke-width=".26458" style="font-variant-caps:normal;font-variant-east-asian:normal;font-variant-ligatures:normal;font-variant-numeric:normal">Sensor</tspan></text>
    <text x="26.783001" y="81.871445" fill="#000000" font-family="sans-serif" font-size="2.1167px" stroke-width=".26458" style="font-variant-caps:normal;font-variant-east-asian:normal;font-variant-ligatures:normal;font-variant-numeric:normal;line-height:1.25" xml:space="preserve"><tspan x="26.783001" y="81.871445" font-family="sans-serif" font-size="2.1167px" stroke-width=".26458" style="font-variant-caps:normal;font-variant-east-asian:normal;font-variant-ligatures:normal;font-variant-numeric:normal">Rendered zone interior</tspan></text>
   </g>
   <rect x="19.64" y="78.76" width="4.1162" height="3.9472" fill-opacity=".4"/>
  </g>
  <g transform="matrix(1.61 0 0 1.61 -9.524 -92.698)">
   <path d="m15.648 113.58 29.953-7.8821-16.671 27.351z" fill-opacity=".4" stroke="#000" stroke-dasharray="0.264583, 0.793749" stroke-width=".26458"/>
   <path d="m15.648 113.58 29.953-7.8821-16.671 27.351z" fill="none"/>
   <path d="m15.648 113.58 29.953-7.8821" fill="none" stroke="#00f" stroke-width=".26458px"/>
   <circle cx="29.034" cy="133.05" r="4.0983" fill="#fffffe" fill-rule="evenodd" stroke="#000" stroke-width=".26458"/>
   <g fill="none" stroke="#000" stroke-dasharray="0.265, 0.265" stroke-width=".265">
    <path d="m28.929 133.05-12.201-36.636" marker-end="url(#Arrow1Lend-60)"/>
    <path d="m28.929 133.05-4.8014-36.598" marker-end="url(#Arrow1Lend-5-2)"/>
    <path d="m28.929 133.05 5.104-36.363" marker-end="url(#Arrow1Lend-5-1-1)"/>
    <path d="m28.929 133.05 0.17358-36.444" marker-end="url(#Arrow1Lend-5-1-0-7)"/>
    <path d="m28.929 133.05 12.134-36.636" marker-end="url(#Arrow1Lend-6-2)"/>
   </g>
  </g>
  <text x="24.079844" y="47.923607" fill="#000000" font-family="sans-serif" font-size="4.5437px" stroke-width=".42597" style="font-variant-caps:normal;font-variant-east-asian:normal;font-variant-ligatures:normal;font-variant-numeric:normal;line-height:1.25" xml:space="preserve"><tspan x="24.079844" y="47.923607" font-family="sans-serif" font-size="4.5437px" stroke-width=".42597" style="font-variant-caps:normal;font-variant-east-asian:normal;font-variant-ligatures:normal;font-variant-numeric:normal">1 intersection</tspan></text>
  <circle cx="101.74" cy="119.82" r="6.5981" fill="#fff" fill-rule="evenodd" stroke="#000" stroke-width=".42597"/>
  <g fill="none" stroke="#000" stroke-dasharray="0.426642, 0.426642" stroke-width=".42664">
   <path d="m101.57 119.82-19.642-58.984" marker-end="url(#Arrow1Lend)"/>
   <path d="m101.57 119.82-7.7301-58.922" marker-end="url(#Arrow1Lend-5)"/>
   <path d="m101.57 119.82 8.2172-58.543" marker-end="url(#Arrow1Lend-5-1)"/>
   <path d="m101.57 119.82 0.27946-58.673" marker-end="url(#Arrow1Lend-5-1-0)"/>
   <path d="m101.57 119.82 19.535-58.984" marker-end="url(#Arrow1Lend-6)"/>
  </g>
  <path d="m80.505 83.923 48.223-12.69-40.096 30.533z" fill-opacity=".4" stroke="#00f" stroke-width=".42597px"/>
  <g transform="matrix(1.61 0 0 1.61 -4.1707 -92.698)">
   <text x="57.032314" y="87.344292" fill="#000000" font-family="sans-serif" font-size="2.8222px" stroke-width=".26458" style="font-variant-caps:normal;font-variant-east-asian:normal;font-variant-ligatures:normal;font-variant-numeric:normal;line-height:1.25" xml:space="preserve"><tspan x="57.032314" y="87.344292" font-family="sans-serif" font-size="2.8222px" stroke-width=".26458" style="font-variant-caps:normal;font-variant-east-asian:normal;font-variant-ligatures:normal;font-variant-numeric:normal">2 intersections</tspan></text>
  </g>
  <circle cx="168.74" cy="120.15" r="6.5981" fill="#fff" fill-rule="evenodd" stroke="#000" stroke-width=".42597"/>
  <g fill="none" stroke="#000" stroke-dasharray="0.426642, 0.426642" stroke-width=".42664">
   <path d="m168.58 120.16-19.642-58.984" marker-end="url(#Arrow1Lend-3)"/>
   <path d="m168.58 120.16-7.7301-58.922" marker-end="url(#Arrow1Lend-5-29)"/>
   <path d="m168.58 120.16 8.2172-58.543" marker-end="url(#Arrow1Lend-5-1-19)"/>
   <path d="m168.58 120.16 0.27946-58.673" marker-end="url(#Arrow1Lend-5-1-0-78)"/>
   <path d="m168.58 120.16 19.535-58.984" marker-end="url(#Arrow1Lend-6-5)"/>
  </g>
  <path d="m147.51 84.256 38.071-9.5211-6.317 16.704 7.2257 0.73447c-10.216 3.5183-20.55 6.6754-30.852 9.926z" fill-opacity=".4" stroke="#000" stroke-dasharray="0.426642, 1.27993" stroke-width=".42664"/>
  <path d="m147.51 84.256 38.071-9.5211-29.86 14.213 30.768 3.2261-30.852 9.926z" fill="none" stroke="#00f" stroke-width=".42597px"/>
  <text x="150.42395" y="47.923607" fill="#000000" font-family="sans-serif" font-size="4.5437px" stroke-width=".42597" style="font-variant-caps:normal;font-variant-east-asian:normal;font-variant-ligatures:normal;font-variant-numeric:normal;line-height:1.25" xml:space="preserve"><tspan x="150.42395" y="47.923607" font-family="sans-serif" font-size="4.5437px" stroke-width=".42597" style="font-variant-caps:normal;font-variant-east-asian:normal;font-variant-ligatures:normal;font-variant-numeric:normal">&gt;2 intersections</tspan></text>
  <text transform="scale(.26458)" fill="#000000" font-family="sans-serif" font-size="40px" style="line-height:1.25;shape-inside:url(#rect42244);white-space:pre" xml:space="preserve"/>
 </g>
</svg>
